# Wavefront OBJ file automatically generated by Tiled2Unity

# Vertices (Count = 45)
v -160 -300 0
v -180 -300 0
v -180 -280 0
v -160 -280 0
v -140 -300 0
v -140 -280 0
v -120 -300 0
v -120 -280 0
v -100 -300 0
v -100 -280 0
v -80 -300 0
v -80 -280 0
v -60 -300 0
v -60 -280 0
v -40 -300 0
v -40 -280 0
v -20 -300 0
v -20 -280 0
v -180 -260 0
v -160 -260 0
v -140 -260 0
v -120 -260 0
v -100 -260 0
v -80 -260 0
v -60 -260 0
v -40 -260 0
v -20 -260 0
v -180 -240 0
v -160 -240 0
v -140 -240 0
v -120 -240 0
v -100 -240 0
v -80 -240 0
v -60 -240 0
v -40 -240 0
v -20 -240 0
v -180 -220 0
v -160 -220 0
v -140 -220 0
v -120 -220 0
v -100 -220 0
v -80 -220 0
v -60 -220 0
v -40 -220 0
v -20 -220 0

# Texture cooridinates (Count = 60)
vt 0.2778999 0.9092129
vt 0.3332113 0.9092129
vt 0.3332113 0.9392719
vt 0.2778999 0.9392719
vt 0.2223443 0.9092129
vt 0.2776557 0.9092129
vt 0.2776557 0.9392719
vt 0.2223443 0.9392719
vt 0.1667887 0.9092129
vt 0.2221002 0.9092129
vt 0.2221002 0.9392719
vt 0.1667887 0.9392719
vt 0.2778999 0.939516
vt 0.3332113 0.939516
vt 0.3332113 0.9695749
vt 0.2778999 0.9695749
vt 0.2223443 0.939516
vt 0.2776557 0.939516
vt 0.2776557 0.9695749
vt 0.2223443 0.9695749
vt 0.1667887 0.939516
vt 0.2221002 0.939516
vt 0.2221002 0.9695749
vt 0.1667887 0.9695749
vt 0.2778999 0.9698191
vt 0.3332113 0.9698191
vt 0.3332113 0.9998779
vt 0.2778999 0.9998779
vt 0.2223443 0.9698191
vt 0.2776557 0.9698191
vt 0.2776557 0.9998779
vt 0.2223443 0.9998779
vt 0.1667887 0.9698191
vt 0.2221002 0.9698191
vt 0.2221002 0.9998779
vt 0.1667887 0.9998779
vt 0.389011 0.8486069
vt 0.4443224 0.8486069
vt 0.4443224 0.8786658
vt 0.389011 0.8786658
vt 0.0001220703 0.8183039
vt 0.05543349 0.8183039
vt 0.05543349 0.8483628
vt 0.0001220703 0.8483628
vt 0.3334554 0.8486069
vt 0.3887668 0.8486069
vt 0.3887668 0.8786658
vt 0.3334554 0.8786658
vt 0.389011 0.8789099
vt 0.4443224 0.8789099
vt 0.4443224 0.9089688
vt 0.389011 0.9089688
vt 0.3334554 0.9092129
vt 0.3887668 0.9092129
vt 0.3887668 0.9392719
vt 0.3334554 0.9392719
vt 0.3334554 0.8789099
vt 0.3887668 0.8789099
vt 0.3887668 0.9089688
vt 0.3334554 0.9089688

# Normal
vn 0 0 -1

# Groups (Count = 2)

g mesh_0001
f 1/1/1 2/2/1 3/3/1 4/4/1
f 5/5/1 1/6/1 4/7/1 6/8/1
f 7/5/1 5/6/1 6/7/1 8/8/1
f 9/5/1 7/6/1 8/7/1 10/8/1
f 11/5/1 9/6/1 10/7/1 12/8/1
f 13/5/1 11/6/1 12/7/1 14/8/1
f 15/5/1 13/6/1 14/7/1 16/8/1
f 17/9/1 15/10/1 16/11/1 18/12/1
f 4/13/1 3/14/1 19/15/1 20/16/1
f 6/17/1 4/18/1 20/19/1 21/20/1
f 8/17/1 6/18/1 21/19/1 22/20/1
f 10/17/1 8/18/1 22/19/1 23/20/1
f 12/17/1 10/18/1 23/19/1 24/20/1
f 14/17/1 12/18/1 24/19/1 25/20/1
f 16/17/1 14/18/1 25/19/1 26/20/1
f 18/21/1 16/22/1 26/23/1 27/24/1
f 20/13/1 19/14/1 28/15/1 29/16/1
f 21/17/1 20/18/1 29/19/1 30/20/1
f 22/17/1 21/18/1 30/19/1 31/20/1
f 23/17/1 22/18/1 31/19/1 32/20/1
f 24/17/1 23/18/1 32/19/1 33/20/1
f 25/17/1 24/18/1 33/19/1 34/20/1
f 26/17/1 25/18/1 34/19/1 35/20/1
f 27/21/1 26/22/1 35/23/1 36/24/1
f 29/25/1 28/26/1 37/27/1 38/28/1
f 30/29/1 29/30/1 38/31/1 39/32/1
f 31/29/1 30/30/1 39/31/1 40/32/1
f 32/29/1 31/30/1 40/31/1 41/32/1
f 33/29/1 32/30/1 41/31/1 42/32/1
f 34/29/1 33/30/1 42/31/1 43/32/1
f 35/29/1 34/30/1 43/31/1 44/32/1
f 36/33/1 35/34/1 44/35/1 45/36/1

g mesh_0002
f 8/37/1 6/38/1 21/39/1 22/40/1
f 10/41/1 8/42/1 22/43/1 23/44/1
f 12/41/1 10/42/1 23/43/1 24/44/1
f 14/45/1 12/46/1 24/47/1 25/48/1
f 22/49/1 21/50/1 30/51/1 31/52/1
f 23/53/1 22/54/1 31/55/1 32/56/1
f 24/53/1 23/54/1 32/55/1 33/56/1
f 25/57/1 24/58/1 33/59/1 34/60/1

